<?xml version="1.0" encoding="UTF-8"?><svg id="Layer_1" xmlns="http://www.w3.org/2000/svg" viewBox="0 0 257.46 162.56"><defs><style>.cls-1{fill:#b52025;}.cls-1,.cls-2,.cls-3{fill-rule:evenodd;}.cls-2{fill:#c52026;}</style></defs><g id="Logo"><g><path class="cls-1" d="M71.69,0c21.21,2.19,43.97,8.33,61.45,14.51,36.54,12.93,69.83,30.65,96.15,54.63,6.21,5.64,12.23,12.56,17.36,20.47,6.57,10.16,15.91,28.32,7.4,40.97-9.11,13.51-35.43,13.95-57.76,12.23-19.44-1.49-37.47-3.96-54.62-5.39,9.01-12.93,11.43-35.46,5.97-54.91-4.62-16.52-14.47-30.82-27.3-38.98-11.39-7.24-23.91-11.4-40.97-10.24-12.54,.85-21.87,3.27-31.58,7.4-2.38,1.01-6.58,3.97-8.82,3.98-3.07,.02-7.54-4.04-10.24-5.69-7.1-4.34-12.87-7.73-19.63-11.95-3.34-2.08-6.96-3.69-9.1-6.54C22.92,14.88,48.86,12.24,71.69,6.54c1.08-1.91-1.42-4.02-.57-5.69-.01-.49,.21-.74,.57-.86Z"/><path class="cls-3" d="M234.13,66.86c-6.67-4.98-12.51-11.07-19.34-16.21-18.6-14.01-41.14-25.12-65.15-33.86-2-.72-4.43-1.13-5.97-2.84,45.36-9.15,83.65,16.69,90.46,52.91Z"/><path class="cls-3" d="M48.08,154.48c36.98,5.54,59.56-30.43,47.22-64.58-5.61-15.53-20.59-30.44-38.97-31.86-12.9-1-20.13,2.79-28.17,7.68,9.44-15.44,27.66-24.24,50.07-25.9,23.15-1.7,39.48,7.48,50.07,20.2,9.49,11.4,15.62,27,15.65,44.67,.06,30.64-20.99,46.25-45.52,53.48-8.22,2.42-18.23,4.97-28.73,4.27-8.92-.6-15.34-3.65-21.62-7.96Z"/></g><path class="cls-2" d="M71.69,6.54C51.16,11.67,28.13,14.34,7.02,18.89c19.4,1.65,52.37,5.61,87.72,14.94,5.83,.84,11.13,2.4,16.07,4.58,40.56,12.47,81.99,32.41,107.98,64.29,22.52,27.61,31.98,31.71,35.59,27.29,.33-.54,.67-1.08,.93-1.64,4.55-13.03,.17-17.38-.55-22.97-2.21-5.99-5.39-11.57-8.1-15.78-5.13-7.92-11.15-14.83-17.36-20.47-26.32-23.97-59.6-41.7-96.15-54.63C115.67,8.33,92.91,2.19,71.69,0c-.36,.12-.58,.37-.57,.86-.85,1.66,1.65,3.78,.57,5.69Z"/></g></svg>